# xmcd CD database file
#
# Track frame offsets:
#	150
#	38583
#	65428
#	94401
#
# Disc length: 1476 seconds
#
# Revision: 0
# Processed by: cddbd v1.5.2PL0 Copyright (c) Steve Scherf et al.
# Submitted via: CDex 1.70beta2
#
DISCID=2d05c204
DTITLE=Jan Luley - LA LUNE SUR LA RUE BOURBON
DYEAR=2006
DGENRE=Jazz
TTITLE0=La Lune Sur La Rue Bourbon
TTITLE1=Martin's Mambo
TTITLE2=Blues Pour la Menthe
TTITLE3=Keep On Gwine
EXTD=YEAR: 2006
EXTT0=
EXTT1=
EXTT2=
EXTT3=
PLAYORDER=
